<svg xmlns="http://www.w3.org/2000/svg" xmlns:xlink="http://www.w3.org/1999/xlink" width="564" zoomAndPan="magnify" viewBox="0 0 422.88 440.999989" height="588" preserveAspectRatio="xMidYMid meet" version="1.0"><defs><g/><clipPath id="1c5ed7f250"><rect x="0" width="181" y="0" height="262"/></clipPath><clipPath id="82ed66c44c"><rect x="0" width="156" y="0" height="262"/></clipPath><clipPath id="a2a5bc44ad"><path d="M 0.5625 138 L 89 138 L 89 214 L 0.5625 214 Z M 0.5625 138 " clip-rule="nonzero"/></clipPath><clipPath id="0cd32ea864"><rect x="0" width="108" y="0" height="220"/></clipPath></defs><g transform="matrix(1, 0, 0, 1, 97, 89)"><g clip-path="url(#1c5ed7f250)"><g fill="#f4faf0" fill-opacity="1"><g transform="translate(0.200641, 209.440096)"><g><path d="M 6.171875 -205.703125 L 42.171875 -205.703125 L 157.359375 -30.03125 L 157.359375 -119.71875 C 157.359375 -139.738281 155.710938 -155.882812 152.421875 -168.15625 C 149.128906 -180.4375 144.84375 -189.421875 139.5625 -195.109375 C 134.289062 -200.796875 128.707031 -203.640625 122.8125 -203.640625 L 122.8125 -205.703125 L 178.34375 -205.703125 L 178.34375 -203.640625 C 172.445312 -203.640625 168.160156 -201.859375 165.484375 -198.296875 C 162.816406 -194.734375 161.140625 -188.9375 160.453125 -180.90625 C 159.765625 -172.882812 159.421875 -162.085938 159.421875 -148.515625 L 159.421875 4.109375 L 157.359375 4.109375 L 27.15625 -194.1875 L 27.15625 -85.984375 C 27.15625 -66.097656 28.800781 -49.984375 32.09375 -37.640625 C 35.382812 -25.296875 39.664062 -16.28125 44.9375 -10.59375 C 50.21875 -4.90625 55.804688 -2.0625 61.703125 -2.0625 L 61.703125 0 L 6.171875 0 L 6.171875 -2.0625 C 12.066406 -2.0625 16.347656 -3.84375 19.015625 -7.40625 C 21.691406 -10.96875 23.375 -16.796875 24.0625 -24.890625 C 24.75 -32.984375 25.09375 -43.75 25.09375 -57.1875 L 25.09375 -148.515625 C 25.09375 -162.085938 24.75 -172.882812 24.0625 -180.90625 C 23.375 -188.9375 21.691406 -194.734375 19.015625 -198.296875 C 16.347656 -201.859375 12.066406 -203.640625 6.171875 -203.640625 Z M 6.171875 -205.703125 "/></g></g></g></g></g><path stroke-linecap="butt" transform="matrix(0.749787, 0.00000000000000167, -0.00000000000000167, 0.749787, 103.402949, 296.845924)" fill="none" stroke-linejoin="miter" d="M -0.000807491 3.998236 L 204.140447 3.998236 " stroke="#ffffff" stroke-width="8" stroke-opacity="1" stroke-miterlimit="4"/><g transform="matrix(1, 0, 0, 1, 98, 89)"><g clip-path="url(#82ed66c44c)"><g fill="#f4faf0" fill-opacity="1"><g transform="translate(0.195822, 209.440096)"><g><path d="M 6.171875 -205.703125 L 61.703125 -205.703125 L 61.703125 -203.640625 C 55.804688 -203.640625 51.519531 -201.859375 48.84375 -198.296875 C 46.175781 -194.734375 44.5 -188.9375 43.8125 -180.90625 C 43.125 -172.882812 42.78125 -162.085938 42.78125 -148.515625 L 42.78125 -2.0625 L 68.90625 -2.0625 C 72.195312 -2.0625 76.484375 -2.160156 81.765625 -2.359375 C 87.046875 -2.566406 92.769531 -3.015625 98.9375 -3.703125 C 105.113281 -4.390625 111.25 -5.453125 117.34375 -6.890625 C 123.445312 -8.328125 129.070312 -10.210938 134.21875 -12.546875 C 139.363281 -14.878906 143.476562 -17.789062 146.5625 -21.28125 C 149.644531 -24.78125 151.1875 -29 151.1875 -33.9375 L 153.25 -33.9375 L 153.25 0 L 6.171875 0 L 6.171875 -2.0625 C 12.066406 -2.0625 16.347656 -3.84375 19.015625 -7.40625 C 21.691406 -10.96875 23.375 -16.796875 24.0625 -24.890625 C 24.75 -32.984375 25.09375 -43.75 25.09375 -57.1875 L 25.09375 -148.515625 C 25.09375 -162.085938 24.75 -172.882812 24.0625 -180.90625 C 23.375 -188.9375 21.691406 -194.734375 19.015625 -198.296875 C 16.347656 -201.859375 12.066406 -203.640625 6.171875 -203.640625 Z M 6.171875 -205.703125 "/></g></g></g></g></g><g transform="matrix(1, 0, 0, 1, 278, 91)"><g clip-path="url(#0cd32ea864)"><g clip-path="url(#a2a5bc44ad)"><g fill="#f4faf0" fill-opacity="1"><g transform="translate(86.410015, 218.531742)"><g><path d="M 1.671875 -42.359375 C 1.671875 -37.160156 0.597656 -32.296875 -1.546875 -27.765625 C -3.703125 -23.234375 -6.75 -19.257812 -10.6875 -15.84375 C -14.632812 -12.4375 -19.265625 -9.78125 -24.578125 -7.875 C -29.890625 -5.976562 -35.675781 -5.03125 -41.9375 -5.03125 C -48.257812 -5.03125 -54.0625 -5.976562 -59.34375 -7.875 C -64.625 -9.78125 -69.234375 -12.4375 -73.171875 -15.84375 C -77.117188 -19.257812 -80.164062 -23.234375 -82.3125 -27.765625 C -84.46875 -32.296875 -85.546875 -37.160156 -85.546875 -42.359375 C -85.546875 -47.554688 -84.46875 -52.421875 -82.3125 -56.953125 C -80.164062 -61.484375 -77.117188 -65.453125 -73.171875 -68.859375 C -69.234375 -72.273438 -64.625 -74.929688 -59.34375 -76.828125 C -54.0625 -78.734375 -48.257812 -79.6875 -41.9375 -79.6875 C -35.675781 -79.6875 -29.890625 -78.734375 -24.578125 -76.828125 C -19.265625 -74.929688 -14.632812 -72.273438 -10.6875 -68.859375 C -6.75 -65.453125 -3.703125 -61.484375 -1.546875 -56.953125 C 0.597656 -52.421875 1.671875 -47.554688 1.671875 -42.359375 Z M -84.546875 -42.359375 C -84.546875 -37.992188 -83.484375 -33.992188 -81.359375 -30.359375 C -79.234375 -26.722656 -76.253906 -23.578125 -72.421875 -20.921875 C -68.597656 -18.265625 -64.097656 -16.207031 -58.921875 -14.75 C -53.742188 -13.300781 -48.082031 -12.578125 -41.9375 -12.578125 C -35.84375 -12.578125 -30.191406 -13.359375 -24.984375 -14.921875 C -19.785156 -16.492188 -15.269531 -18.648438 -11.4375 -21.390625 C -7.613281 -24.128906 -4.640625 -27.300781 -2.515625 -30.90625 C -0.390625 -34.507812 0.671875 -38.328125 0.671875 -42.359375 C 0.671875 -46.378906 -0.390625 -50.191406 -2.515625 -53.796875 C -4.640625 -57.410156 -7.613281 -60.585938 -11.4375 -63.328125 C -15.269531 -66.066406 -19.785156 -68.21875 -24.984375 -69.78125 C -30.191406 -71.34375 -35.84375 -72.125 -41.9375 -72.125 C -48.082031 -72.125 -53.742188 -71.394531 -58.921875 -69.9375 C -64.097656 -68.488281 -68.597656 -66.4375 -72.421875 -63.78125 C -76.253906 -61.125 -79.234375 -57.976562 -81.359375 -54.34375 C -83.484375 -50.71875 -84.546875 -46.722656 -84.546875 -42.359375 Z M -84.546875 -42.359375 "/></g></g></g></g><g fill="#f4faf0" fill-opacity="1"><g transform="translate(86.410015, 136.842296)"><g><path d="M -83.875 -2.515625 L -83.875 -17.1875 L -12.25 -64.171875 L -48.8125 -64.171875 C -56.976562 -64.171875 -63.5625 -63.5 -68.5625 -62.15625 C -73.570312 -60.8125 -77.234375 -59.0625 -79.546875 -56.90625 C -81.867188 -54.757812 -83.03125 -52.484375 -83.03125 -50.078125 L -83.875 -50.078125 L -83.875 -72.71875 L -83.03125 -72.71875 C -83.03125 -70.3125 -82.300781 -68.5625 -80.84375 -67.46875 C -79.394531 -66.382812 -77.035156 -65.703125 -73.765625 -65.421875 C -70.492188 -65.140625 -66.09375 -65 -60.5625 -65 L 1.671875 -65 L 1.671875 -64.171875 L -79.171875 -11.078125 L -35.0625 -11.078125 C -26.945312 -11.078125 -20.375 -11.742188 -15.34375 -13.078125 C -10.3125 -14.421875 -6.632812 -16.171875 -4.3125 -18.328125 C -2 -20.484375 -0.84375 -22.757812 -0.84375 -25.15625 L 0 -25.15625 L 0 -2.515625 L -0.84375 -2.515625 C -0.84375 -4.921875 -1.566406 -6.664062 -3.015625 -7.75 C -4.472656 -8.84375 -6.847656 -9.53125 -10.140625 -9.8125 C -13.441406 -10.09375 -17.832031 -10.234375 -23.3125 -10.234375 L -60.5625 -10.234375 C -66.09375 -10.234375 -70.492188 -10.09375 -73.765625 -9.8125 C -77.035156 -9.53125 -79.394531 -8.84375 -80.84375 -7.75 C -82.300781 -6.664062 -83.03125 -4.921875 -83.03125 -2.515625 Z M -83.875 -2.515625 "/></g></g></g><g fill="#f4faf0" fill-opacity="1"><g transform="translate(86.410015, 64.630186)"><g><path d="M -83.03125 -2.515625 L -83.875 -2.515625 L -83.875 -62.578125 L -72.546875 -62.578125 L -72.546875 -61.734375 L -72.890625 -61.734375 C -75.679688 -61.734375 -78.066406 -59.085938 -80.046875 -53.796875 C -82.035156 -48.515625 -83.03125 -41.039062 -83.03125 -31.375 L -83.03125 -17.453125 L -46.96875 -17.453125 C -48.195312 -18.734375 -49.144531 -20.195312 -49.8125 -21.84375 C -50.488281 -23.5 -50.828125 -25.273438 -50.828125 -27.171875 C -50.828125 -29.242188 -50.5625 -31.128906 -50.03125 -32.828125 C -49.5 -34.535156 -48.894531 -36.160156 -48.21875 -37.703125 C -47.550781 -39.242188 -46.953125 -40.796875 -46.421875 -42.359375 C -45.890625 -43.921875 -45.625 -45.625 -45.625 -47.46875 C -45.625 -49.09375 -46.054688 -50.535156 -46.921875 -51.796875 C -47.796875 -53.054688 -48.957031 -53.6875 -50.40625 -53.6875 L -50.40625 -54.515625 C -47.945312 -54.515625 -45.796875 -53.550781 -43.953125 -51.625 C -42.109375 -49.695312 -41.1875 -47.082031 -41.1875 -43.78125 C -41.1875 -41.207031 -41.546875 -38.96875 -42.265625 -37.0625 C -42.992188 -35.164062 -43.832031 -33.460938 -44.78125 -31.953125 C -45.738281 -30.441406 -46.59375 -29 -47.34375 -27.625 C -48.101562 -26.257812 -48.507812 -24.820312 -48.5625 -23.3125 C -48.613281 -22.082031 -48.359375 -20.960938 -47.796875 -19.953125 C -47.242188 -18.953125 -46.519531 -18.117188 -45.625 -17.453125 L -0.84375 -17.453125 L -0.84375 -28.1875 C -0.84375 -29.519531 -0.882812 -31.265625 -0.96875 -33.421875 C -1.050781 -35.578125 -1.226562 -37.910156 -1.5 -40.421875 C -1.78125 -42.941406 -2.210938 -45.445312 -2.796875 -47.9375 C -3.390625 -50.425781 -4.160156 -52.71875 -5.109375 -54.8125 C -6.066406 -56.90625 -7.253906 -58.582031 -8.671875 -59.84375 C -10.097656 -61.101562 -11.820312 -61.734375 -13.84375 -61.734375 L -13.84375 -62.578125 L 0 -62.578125 L 0 -2.515625 L -0.84375 -2.515625 C -0.84375 -4.921875 -1.566406 -6.664062 -3.015625 -7.75 C -4.472656 -8.84375 -6.847656 -9.53125 -10.140625 -9.8125 C -13.441406 -10.09375 -17.832031 -10.234375 -23.3125 -10.234375 L -60.5625 -10.234375 C -66.09375 -10.234375 -70.492188 -10.09375 -73.765625 -9.8125 C -77.035156 -9.53125 -79.394531 -8.84375 -80.84375 -7.75 C -82.300781 -6.664062 -83.03125 -4.921875 -83.03125 -2.515625 Z M -83.03125 -2.515625 "/></g></g></g></g></g></svg>