<svg xmlns="http://www.w3.org/2000/svg" xmlns:xlink="http://www.w3.org/1999/xlink" width="620" zoomAndPan="magnify" viewBox="0 0 464.87997 147.000002" height="196" preserveAspectRatio="xMidYMid meet" version="1.0"><defs><g/><clipPath id="4cadb14122"><rect x="0" width="339" y="0" height="88"/></clipPath><clipPath id="ee56adaca1"><path d="M 48 1 L 67.902344 1 L 67.902344 28 L 48 28 Z M 48 1 " clip-rule="nonzero"/></clipPath><clipPath id="00a7817577"><rect x="0" width="68" y="0" height="35"/></clipPath></defs><g transform="matrix(1, 0, 0, 1, 33, 29)"><g clip-path="url(#4cadb14122)"><g fill="#f4faf0" fill-opacity="1"><g transform="translate(0.659719, 69.872731)"><g><path d="M 2.046875 -68.03125 L 20.40625 -68.03125 L 20.40625 -67.34375 C 18.457031 -67.34375 17.039062 -66.753906 16.15625 -65.578125 C 15.269531 -64.398438 14.710938 -62.484375 14.484375 -59.828125 C 14.265625 -57.179688 14.15625 -53.613281 14.15625 -49.125 L 14.15625 -0.6875 L 22.796875 -0.6875 C 23.878906 -0.6875 25.289062 -0.71875 27.03125 -0.78125 C 28.78125 -0.851562 30.675781 -1 32.71875 -1.21875 C 34.757812 -1.445312 36.789062 -1.800781 38.8125 -2.28125 C 40.832031 -2.757812 42.691406 -3.382812 44.390625 -4.15625 C 46.085938 -4.925781 47.445312 -5.890625 48.46875 -7.046875 C 49.488281 -8.203125 50 -9.59375 50 -11.21875 L 50.6875 -11.21875 L 50.6875 0 L 2.046875 0 L 2.046875 -0.6875 C 3.992188 -0.6875 5.410156 -1.273438 6.296875 -2.453125 C 7.179688 -3.628906 7.734375 -5.554688 7.953125 -8.234375 C 8.179688 -10.910156 8.296875 -14.46875 8.296875 -18.90625 L 8.296875 -49.125 C 8.296875 -53.613281 8.179688 -57.179688 7.953125 -59.828125 C 7.734375 -62.484375 7.179688 -64.398438 6.296875 -65.578125 C 5.410156 -66.753906 3.992188 -67.34375 2.046875 -67.34375 Z M 2.046875 -68.03125 "/></g></g></g><g fill="#f4faf0" fill-opacity="1"><g transform="translate(49.715551, 69.872731)"><g><path d="M 4.078125 -13.75 C 4.078125 -17.144531 4.703125 -19.960938 5.953125 -22.203125 C 7.203125 -24.453125 8.847656 -26.28125 10.890625 -27.6875 C 12.929688 -29.09375 15.175781 -30.210938 17.625 -31.046875 C 20.070312 -31.890625 22.519531 -32.59375 24.96875 -33.15625 C 27.414062 -33.726562 29.660156 -34.320312 31.703125 -34.9375 C 33.742188 -35.550781 35.382812 -36.332031 36.625 -37.28125 C 37.875 -38.226562 38.5 -39.5 38.5 -41.09375 C 38.5 -42.945312 37.882812 -44.441406 36.65625 -45.578125 C 35.4375 -46.710938 33.921875 -47.539062 32.109375 -48.0625 C 30.296875 -48.582031 28.457031 -48.84375 26.59375 -48.84375 C 24.46875 -48.84375 22.425781 -48.582031 20.46875 -48.0625 C 18.519531 -47.539062 16.929688 -46.703125 15.703125 -45.546875 C 14.484375 -44.390625 13.875 -42.859375 13.875 -40.953125 C 13.875 -39.679688 14.25 -38.757812 15 -38.1875 C 15.75 -37.625 16.28125 -37.503906 16.59375 -37.828125 C 16.957031 -36.828125 16.695312 -35.914062 15.8125 -35.09375 C 14.925781 -34.28125 13.921875 -33.875 12.796875 -33.875 C 11.335938 -33.875 10.15625 -34.414062 9.25 -35.5 C 8.34375 -36.59375 7.890625 -37.867188 7.890625 -39.328125 C 7.890625 -41.585938 8.707031 -43.46875 10.34375 -44.96875 C 11.976562 -46.46875 14.210938 -47.601562 17.046875 -48.375 C 19.878906 -49.144531 23.0625 -49.53125 26.59375 -49.53125 C 28.5 -49.53125 30.484375 -49.335938 32.546875 -48.953125 C 34.609375 -48.566406 36.523438 -48 38.296875 -47.25 C 40.066406 -46.5 41.503906 -45.601562 42.609375 -44.5625 C 43.722656 -43.519531 44.28125 -42.316406 44.28125 -40.953125 C 44.28125 -39.585938 43.804688 -38.5 42.859375 -37.6875 C 41.910156 -36.875 40.617188 -36.226562 38.984375 -35.75 C 37.347656 -35.269531 35.507812 -34.828125 33.46875 -34.421875 C 31.425781 -34.015625 29.328125 -33.550781 27.171875 -33.03125 C 25.023438 -32.507812 22.929688 -31.796875 20.890625 -30.890625 C 18.847656 -29.984375 17.007812 -28.800781 15.375 -27.34375 C 13.738281 -25.894531 12.441406 -24.023438 11.484375 -21.734375 C 10.535156 -19.441406 10.0625 -16.640625 10.0625 -13.328125 C 10.0625 -10.972656 10.523438 -8.851562 11.453125 -6.96875 C 12.390625 -5.09375 13.695312 -3.609375 15.375 -2.515625 C 17.050781 -1.429688 19 -0.890625 21.21875 -0.890625 C 23.082031 -0.890625 24.976562 -1.382812 26.90625 -2.375 C 28.832031 -3.375 30.632812 -4.960938 32.3125 -7.140625 C 33.988281 -9.316406 35.335938 -12.140625 36.359375 -15.609375 C 37.378906 -19.078125 37.890625 -23.285156 37.890625 -28.234375 C 37.890625 -29.003906 37.820312 -29.71875 37.6875 -30.375 C 37.550781 -31.03125 37.234375 -31.425781 36.734375 -31.5625 C 36.734375 -31.789062 36.898438 -32.003906 37.234375 -32.203125 C 37.578125 -32.410156 38.023438 -32.515625 38.578125 -32.515625 C 40.253906 -32.515625 41.476562 -32.003906 42.25 -30.984375 C 43.019531 -29.960938 43.53125 -28.644531 43.78125 -27.03125 C 44.03125 -25.425781 44.15625 -23.71875 44.15625 -21.90625 C 44.15625 -20.40625 44.15625 -19.144531 44.15625 -18.125 C 44.15625 -17.101562 44.164062 -16.128906 44.1875 -15.203125 C 44.207031 -14.273438 44.21875 -13.234375 44.21875 -12.078125 C 44.21875 -10.921875 44.21875 -9.4375 44.21875 -7.625 C 44.21875 -5.71875 44.523438 -4.265625 45.140625 -3.265625 C 45.753906 -2.265625 46.46875 -1.582031 47.28125 -1.21875 C 48.09375 -0.863281 48.796875 -0.6875 49.390625 -0.6875 L 49.390625 0 L 44.5625 0 C 42.75 0 41.21875 -0.769531 39.96875 -2.3125 C 38.71875 -3.851562 38.09375 -5.894531 38.09375 -8.4375 L 38.09375 -20.0625 C 37.507812 -17.164062 36.738281 -14.421875 35.78125 -11.828125 C 34.832031 -9.242188 33.640625 -6.953125 32.203125 -4.953125 C 30.773438 -2.960938 29.007812 -1.410156 26.90625 -0.296875 C 24.800781 0.804688 22.25 1.359375 19.25 1.359375 C 16.351562 1.359375 13.757812 0.710938 11.46875 -0.578125 C 9.175781 -1.867188 7.367188 -3.660156 6.046875 -5.953125 C 4.734375 -8.242188 4.078125 -10.84375 4.078125 -13.75 Z M 4.078125 -13.75 "/></g></g></g><g fill="#f4faf0" fill-opacity="1"><g transform="translate(96.798257, 69.872731)"><g/></g></g><g fill="#f4faf0" fill-opacity="1"><g transform="translate(116.937648, 69.872731)"><g><path d="M 2.046875 -68.03125 L 13.953125 -68.03125 L 52.046875 -9.9375 L 52.046875 -39.59375 C 52.046875 -46.21875 51.5 -51.554688 50.40625 -55.609375 C 49.320312 -59.671875 47.90625 -62.640625 46.15625 -64.515625 C 44.414062 -66.398438 42.566406 -67.34375 40.609375 -67.34375 L 40.609375 -68.03125 L 58.984375 -68.03125 L 58.984375 -67.34375 C 57.035156 -67.34375 55.617188 -66.753906 54.734375 -65.578125 C 53.847656 -64.398438 53.289062 -62.484375 53.0625 -59.828125 C 52.832031 -57.179688 52.71875 -53.613281 52.71875 -49.125 L 52.71875 1.359375 L 52.046875 1.359375 L 8.984375 -64.21875 L 8.984375 -28.4375 C 8.984375 -21.863281 9.523438 -16.535156 10.609375 -12.453125 C 11.703125 -8.367188 13.117188 -5.382812 14.859375 -3.5 C 16.609375 -1.625 18.457031 -0.6875 20.40625 -0.6875 L 20.40625 0 L 2.046875 0 L 2.046875 -0.6875 C 3.992188 -0.6875 5.410156 -1.273438 6.296875 -2.453125 C 7.179688 -3.628906 7.734375 -5.554688 7.953125 -8.234375 C 8.179688 -10.910156 8.296875 -14.46875 8.296875 -18.90625 L 8.296875 -49.125 C 8.296875 -53.613281 8.179688 -57.179688 7.953125 -59.828125 C 7.734375 -62.484375 7.179688 -64.398438 6.296875 -65.578125 C 5.410156 -66.753906 3.992188 -67.34375 2.046875 -67.34375 Z M 2.046875 -68.03125 "/></g></g></g><g fill="#f4faf0" fill-opacity="1"><g transform="translate(174.294201, 69.872731)"><g><path d="M 1.359375 -47.484375 L 1.359375 -48.171875 L 13.46875 -48.171875 C 13.46875 -47.898438 13.46875 -47.09375 13.46875 -45.75 C 13.46875 -44.414062 13.46875 -42.757812 13.46875 -40.78125 C 13.46875 -38.8125 13.476562 -36.679688 13.5 -34.390625 C 13.519531 -32.097656 13.53125 -29.816406 13.53125 -27.546875 C 13.53125 -25.285156 13.53125 -23.222656 13.53125 -21.359375 C 13.53125 -19.503906 13.53125 -18.019531 13.53125 -16.90625 C 13.53125 -15.789062 13.53125 -15.234375 13.53125 -15.234375 C 13.53125 -12.203125 13.90625 -9.707031 14.65625 -7.75 C 15.40625 -5.800781 16.378906 -4.269531 17.578125 -3.15625 C 18.785156 -2.050781 20.078125 -1.238281 21.453125 -0.71875 C 22.835938 -0.195312 24.1875 0.117188 25.5 0.234375 C 26.820312 0.347656 27.9375 0.40625 28.84375 0.40625 C 30.570312 0.40625 32.351562 0.222656 34.1875 -0.140625 C 36.019531 -0.503906 37.753906 -0.976562 39.390625 -1.5625 L 39.390625 -29.25 C 39.390625 -33.738281 39.273438 -37.3125 39.046875 -39.96875 C 38.816406 -42.625 38.257812 -44.539062 37.375 -45.71875 C 36.5 -46.894531 35.082031 -47.484375 33.125 -47.484375 L 33.125 -48.171875 L 45.234375 -48.171875 L 45.234375 -18.90625 C 45.234375 -14.46875 45.347656 -10.910156 45.578125 -8.234375 C 45.804688 -5.554688 46.363281 -3.628906 47.25 -2.453125 C 48.132812 -1.273438 49.550781 -0.6875 51.5 -0.6875 L 51.5 0 L 43.75 0 C 41.882812 0 39.804688 0.113281 37.515625 0.34375 C 35.222656 0.570312 33.019531 0.796875 30.90625 1.015625 C 28.800781 1.242188 27.09375 1.359375 25.78125 1.359375 C 24.5625 1.359375 23.164062 1.28125 21.59375 1.125 C 20.03125 0.96875 18.429688 0.625 16.796875 0.09375 C 15.171875 -0.425781 13.664062 -1.226562 12.28125 -2.3125 C 10.894531 -3.40625 9.769531 -4.878906 8.90625 -6.734375 C 8.050781 -8.597656 7.625 -10.957031 7.625 -13.8125 L 7.625 -29.25 C 7.625 -33.738281 7.507812 -37.3125 7.28125 -39.96875 C 7.050781 -42.625 6.492188 -44.539062 5.609375 -45.71875 C 4.722656 -46.894531 3.304688 -47.484375 1.359375 -47.484375 Z M 1.359375 -47.484375 "/></g></g></g><g fill="#f4faf0" fill-opacity="1"><g transform="translate(223.486112, 69.872731)"><g><path d="M 27.421875 1.359375 C 23.742188 1.359375 20.460938 0.703125 17.578125 -0.609375 C 14.703125 -1.921875 12.265625 -3.742188 10.265625 -6.078125 C 8.273438 -8.421875 6.742188 -11.132812 5.671875 -14.21875 C 4.609375 -17.300781 4.078125 -20.585938 4.078125 -24.078125 C 4.078125 -27.578125 4.609375 -30.867188 5.671875 -33.953125 C 6.742188 -37.035156 8.273438 -39.742188 10.265625 -42.078125 C 12.265625 -44.410156 14.703125 -46.234375 17.578125 -47.546875 C 20.460938 -48.867188 23.742188 -49.53125 27.421875 -49.53125 C 30.273438 -49.53125 32.867188 -49.289062 35.203125 -48.8125 C 37.535156 -48.332031 39.519531 -47.773438 41.15625 -47.140625 C 42.789062 -46.503906 44.050781 -45.945312 44.9375 -45.46875 C 45.820312 -45 46.265625 -44.765625 46.265625 -44.765625 L 46.265625 -36.734375 L 45.984375 -36.734375 C 44.765625 -39.234375 43.132812 -41.378906 41.09375 -43.171875 C 39.050781 -44.960938 36.835938 -46.332031 34.453125 -47.28125 C 32.078125 -48.226562 29.6875 -48.703125 27.28125 -48.703125 C 24.507812 -48.703125 22.125 -48.171875 20.125 -47.109375 C 18.132812 -46.046875 16.484375 -44.628906 15.171875 -42.859375 C 13.859375 -41.085938 12.800781 -39.132812 12 -37 C 11.207031 -34.875 10.648438 -32.695312 10.328125 -30.46875 C 10.015625 -28.25 9.882812 -26.1875 9.9375 -24.28125 C 9.976562 -21.113281 10.453125 -18.125 11.359375 -15.3125 C 12.265625 -12.5 13.566406 -10.015625 15.265625 -7.859375 C 16.972656 -5.703125 19.050781 -4.007812 21.5 -2.78125 C 23.945312 -1.5625 26.734375 -0.953125 29.859375 -0.953125 C 31.222656 -0.953125 32.742188 -1.15625 34.421875 -1.5625 C 36.097656 -1.96875 37.785156 -2.625 39.484375 -3.53125 C 41.191406 -4.4375 42.757812 -5.640625 44.1875 -7.140625 C 45.613281 -8.640625 46.734375 -10.476562 47.546875 -12.65625 L 48.5 -12.25 C 46.738281 -8.207031 44.050781 -4.925781 40.4375 -2.40625 C 36.832031 0.101562 32.492188 1.359375 27.421875 1.359375 Z M 27.421875 1.359375 "/></g></g></g><g fill="#f4faf0" fill-opacity="1"><g transform="translate(269.684329, 69.872731)"><g><path d="M 2.046875 -47.484375 L 2.046875 -48.171875 L 14.15625 -48.171875 L 14.15625 -18.90625 C 14.15625 -14.46875 14.265625 -10.910156 14.484375 -8.234375 C 14.710938 -5.554688 15.269531 -3.628906 16.15625 -2.453125 C 17.039062 -1.273438 18.457031 -0.6875 20.40625 -0.6875 L 20.40625 0 L 2.046875 0 L 2.046875 -0.6875 C 3.992188 -0.6875 5.410156 -1.273438 6.296875 -2.453125 C 7.179688 -3.628906 7.734375 -5.554688 7.953125 -8.234375 C 8.179688 -10.910156 8.296875 -14.46875 8.296875 -18.90625 L 8.296875 -29.25 C 8.296875 -33.738281 8.179688 -37.3125 7.953125 -39.96875 C 7.734375 -42.625 7.179688 -44.539062 6.296875 -45.71875 C 5.410156 -46.894531 3.992188 -47.484375 2.046875 -47.484375 Z M 4.015625 -54.28125 L 6.1875 -54.28125 C 7.644531 -54.28125 8.789062 -54.578125 9.625 -55.171875 C 10.46875 -55.765625 11.160156 -56.429688 11.703125 -57.171875 C 12.242188 -57.921875 12.765625 -58.59375 13.265625 -59.1875 C 13.765625 -59.78125 14.421875 -60.078125 15.234375 -60.078125 C 15.867188 -60.078125 16.34375 -59.894531 16.65625 -59.53125 C 16.976562 -59.164062 17.140625 -58.734375 17.140625 -58.234375 C 17.140625 -57.328125 16.707031 -56.519531 15.84375 -55.8125 C 14.988281 -55.113281 13.945312 -54.570312 12.71875 -54.1875 C 11.5 -53.800781 10.320312 -53.609375 9.1875 -53.609375 L 4.015625 -53.609375 Z M 4.015625 -54.28125 "/></g></g></g><g fill="#f4faf0" fill-opacity="1"><g transform="translate(288.46295, 69.872731)"><g><path d="M 4.078125 -13.75 C 4.078125 -17.144531 4.703125 -19.960938 5.953125 -22.203125 C 7.203125 -24.453125 8.847656 -26.28125 10.890625 -27.6875 C 12.929688 -29.09375 15.175781 -30.210938 17.625 -31.046875 C 20.070312 -31.890625 22.519531 -32.59375 24.96875 -33.15625 C 27.414062 -33.726562 29.660156 -34.320312 31.703125 -34.9375 C 33.742188 -35.550781 35.382812 -36.332031 36.625 -37.28125 C 37.875 -38.226562 38.5 -39.5 38.5 -41.09375 C 38.5 -42.945312 37.882812 -44.441406 36.65625 -45.578125 C 35.4375 -46.710938 33.921875 -47.539062 32.109375 -48.0625 C 30.296875 -48.582031 28.457031 -48.84375 26.59375 -48.84375 C 24.46875 -48.84375 22.425781 -48.582031 20.46875 -48.0625 C 18.519531 -47.539062 16.929688 -46.703125 15.703125 -45.546875 C 14.484375 -44.390625 13.875 -42.859375 13.875 -40.953125 C 13.875 -39.679688 14.25 -38.757812 15 -38.1875 C 15.75 -37.625 16.28125 -37.503906 16.59375 -37.828125 C 16.957031 -36.828125 16.695312 -35.914062 15.8125 -35.09375 C 14.925781 -34.28125 13.921875 -33.875 12.796875 -33.875 C 11.335938 -33.875 10.15625 -34.414062 9.25 -35.5 C 8.34375 -36.59375 7.890625 -37.867188 7.890625 -39.328125 C 7.890625 -41.585938 8.707031 -43.46875 10.34375 -44.96875 C 11.976562 -46.46875 14.210938 -47.601562 17.046875 -48.375 C 19.878906 -49.144531 23.0625 -49.53125 26.59375 -49.53125 C 28.5 -49.53125 30.484375 -49.335938 32.546875 -48.953125 C 34.609375 -48.566406 36.523438 -48 38.296875 -47.25 C 40.066406 -46.5 41.503906 -45.601562 42.609375 -44.5625 C 43.722656 -43.519531 44.28125 -42.316406 44.28125 -40.953125 C 44.28125 -39.585938 43.804688 -38.5 42.859375 -37.6875 C 41.910156 -36.875 40.617188 -36.226562 38.984375 -35.75 C 37.347656 -35.269531 35.507812 -34.828125 33.46875 -34.421875 C 31.425781 -34.015625 29.328125 -33.550781 27.171875 -33.03125 C 25.023438 -32.507812 22.929688 -31.796875 20.890625 -30.890625 C 18.847656 -29.984375 17.007812 -28.800781 15.375 -27.34375 C 13.738281 -25.894531 12.441406 -24.023438 11.484375 -21.734375 C 10.535156 -19.441406 10.0625 -16.640625 10.0625 -13.328125 C 10.0625 -10.972656 10.523438 -8.851562 11.453125 -6.96875 C 12.390625 -5.09375 13.695312 -3.609375 15.375 -2.515625 C 17.050781 -1.429688 19 -0.890625 21.21875 -0.890625 C 23.082031 -0.890625 24.976562 -1.382812 26.90625 -2.375 C 28.832031 -3.375 30.632812 -4.960938 32.3125 -7.140625 C 33.988281 -9.316406 35.335938 -12.140625 36.359375 -15.609375 C 37.378906 -19.078125 37.890625 -23.285156 37.890625 -28.234375 C 37.890625 -29.003906 37.820312 -29.71875 37.6875 -30.375 C 37.550781 -31.03125 37.234375 -31.425781 36.734375 -31.5625 C 36.734375 -31.789062 36.898438 -32.003906 37.234375 -32.203125 C 37.578125 -32.410156 38.023438 -32.515625 38.578125 -32.515625 C 40.253906 -32.515625 41.476562 -32.003906 42.25 -30.984375 C 43.019531 -29.960938 43.53125 -28.644531 43.78125 -27.03125 C 44.03125 -25.425781 44.15625 -23.71875 44.15625 -21.90625 C 44.15625 -20.40625 44.15625 -19.144531 44.15625 -18.125 C 44.15625 -17.101562 44.164062 -16.128906 44.1875 -15.203125 C 44.207031 -14.273438 44.21875 -13.234375 44.21875 -12.078125 C 44.21875 -10.921875 44.21875 -9.4375 44.21875 -7.625 C 44.21875 -5.71875 44.523438 -4.265625 45.140625 -3.265625 C 45.753906 -2.265625 46.46875 -1.582031 47.28125 -1.21875 C 48.09375 -0.863281 48.796875 -0.6875 49.390625 -0.6875 L 49.390625 0 L 44.5625 0 C 42.75 0 41.21875 -0.769531 39.96875 -2.3125 C 38.71875 -3.851562 38.09375 -5.894531 38.09375 -8.4375 L 38.09375 -20.0625 C 37.507812 -17.164062 36.738281 -14.421875 35.78125 -11.828125 C 34.832031 -9.242188 33.640625 -6.953125 32.203125 -4.953125 C 30.773438 -2.960938 29.007812 -1.410156 26.90625 -0.296875 C 24.800781 0.804688 22.25 1.359375 19.25 1.359375 C 16.351562 1.359375 13.757812 0.710938 11.46875 -0.578125 C 9.175781 -1.867188 7.367188 -3.660156 6.046875 -5.953125 C 4.734375 -8.242188 4.078125 -10.84375 4.078125 -13.75 Z M 4.078125 -13.75 "/></g></g></g></g></g><g transform="matrix(1, 0, 0, 1, 382, 72)"><g clip-path="url(#00a7817577)"><g fill="#f4faf0" fill-opacity="1"><g transform="translate(0.323353, 27.682126)"><g><path d="M 13.15625 0.515625 C 11.539062 0.515625 10.03125 0.179688 8.625 -0.484375 C 7.21875 -1.148438 5.984375 -2.09375 4.921875 -3.3125 C 3.867188 -4.539062 3.046875 -5.976562 2.453125 -7.625 C 1.859375 -9.28125 1.5625 -11.082031 1.5625 -13.03125 C 1.5625 -14.988281 1.859375 -16.789062 2.453125 -18.4375 C 3.046875 -20.082031 3.867188 -21.515625 4.921875 -22.734375 C 5.984375 -23.960938 7.21875 -24.910156 8.625 -25.578125 C 10.03125 -26.242188 11.539062 -26.578125 13.15625 -26.578125 C 14.769531 -26.578125 16.28125 -26.242188 17.6875 -25.578125 C 19.101562 -24.910156 20.335938 -23.960938 21.390625 -22.734375 C 22.453125 -21.515625 23.28125 -20.082031 23.875 -18.4375 C 24.46875 -16.789062 24.765625 -14.988281 24.765625 -13.03125 C 24.765625 -11.082031 24.46875 -9.28125 23.875 -7.625 C 23.28125 -5.976562 22.453125 -4.539062 21.390625 -3.3125 C 20.335938 -2.09375 19.101562 -1.148438 17.6875 -0.484375 C 16.28125 0.179688 14.769531 0.515625 13.15625 0.515625 Z M 13.15625 -26.265625 C 11.800781 -26.265625 10.554688 -25.9375 9.421875 -25.28125 C 8.296875 -24.625 7.320312 -23.695312 6.5 -22.5 C 5.675781 -21.3125 5.035156 -19.910156 4.578125 -18.296875 C 4.128906 -16.691406 3.90625 -14.9375 3.90625 -13.03125 C 3.90625 -11.132812 4.148438 -9.378906 4.640625 -7.765625 C 5.128906 -6.148438 5.796875 -4.742188 6.640625 -3.546875 C 7.492188 -2.359375 8.476562 -1.4375 9.59375 -0.78125 C 10.71875 -0.125 11.90625 0.203125 13.15625 0.203125 C 14.40625 0.203125 15.59375 -0.125 16.71875 -0.78125 C 17.84375 -1.4375 18.828125 -2.359375 19.671875 -3.546875 C 20.523438 -4.742188 21.191406 -6.148438 21.671875 -7.765625 C 22.160156 -9.378906 22.40625 -11.132812 22.40625 -13.03125 C 22.40625 -14.9375 22.179688 -16.691406 21.734375 -18.296875 C 21.285156 -19.910156 20.644531 -21.3125 19.8125 -22.5 C 18.988281 -23.695312 18.007812 -24.625 16.875 -25.28125 C 15.75 -25.9375 14.507812 -26.265625 13.15625 -26.265625 Z M 13.15625 -26.265625 "/></g></g></g><g fill="#f4faf0" fill-opacity="1"><g transform="translate(25.715021, 27.682126)"><g><path d="M 0.78125 -26.0625 L 5.34375 -26.0625 L 19.9375 -3.8125 L 19.9375 -15.171875 C 19.9375 -17.703125 19.726562 -19.742188 19.3125 -21.296875 C 18.894531 -22.859375 18.351562 -24 17.6875 -24.71875 C 17.019531 -25.4375 16.3125 -25.796875 15.5625 -25.796875 L 15.5625 -26.0625 L 22.59375 -26.0625 L 22.59375 -25.796875 C 21.84375 -25.796875 21.296875 -25.570312 20.953125 -25.125 C 20.617188 -24.675781 20.410156 -23.941406 20.328125 -22.921875 C 20.242188 -21.898438 20.203125 -20.53125 20.203125 -18.8125 L 20.203125 0.515625 L 19.9375 0.515625 L 3.4375 -24.609375 L 3.4375 -10.890625 C 3.4375 -8.367188 3.644531 -6.328125 4.0625 -4.765625 C 4.476562 -3.203125 5.019531 -2.0625 5.6875 -1.34375 C 6.363281 -0.625 7.070312 -0.265625 7.8125 -0.265625 L 7.8125 0 L 0.78125 0 L 0.78125 -0.265625 C 1.53125 -0.265625 2.070312 -0.488281 2.40625 -0.9375 C 2.75 -1.382812 2.960938 -2.117188 3.046875 -3.140625 C 3.128906 -4.171875 3.171875 -5.539062 3.171875 -7.25 L 3.171875 -18.8125 C 3.171875 -20.53125 3.128906 -21.898438 3.046875 -22.921875 C 2.960938 -23.941406 2.75 -24.675781 2.40625 -25.125 C 2.070312 -25.570312 1.53125 -25.796875 0.78125 -25.796875 Z M 0.78125 -26.0625 "/></g></g></g><g clip-path="url(#ee56adaca1)"><g fill="#f4faf0" fill-opacity="1"><g transform="translate(48.160833, 27.682126)"><g><path d="M 0.78125 -25.796875 L 0.78125 -26.0625 L 19.4375 -26.0625 L 19.4375 -22.546875 L 19.1875 -22.546875 L 19.1875 -22.640625 C 19.1875 -23.515625 18.363281 -24.257812 16.71875 -24.875 C 15.070312 -25.488281 12.75 -25.796875 9.75 -25.796875 L 5.421875 -25.796875 L 5.421875 -14.59375 C 5.816406 -14.976562 6.269531 -15.273438 6.78125 -15.484375 C 7.300781 -15.691406 7.851562 -15.796875 8.4375 -15.796875 C 9.082031 -15.796875 9.671875 -15.710938 10.203125 -15.546875 C 10.734375 -15.378906 11.238281 -15.191406 11.71875 -14.984375 C 12.195312 -14.773438 12.675781 -14.585938 13.15625 -14.421875 C 13.644531 -14.253906 14.175781 -14.171875 14.75 -14.171875 C 15.25 -14.171875 15.695312 -14.304688 16.09375 -14.578125 C 16.488281 -14.847656 16.6875 -15.207031 16.6875 -15.65625 L 16.9375 -15.65625 C 16.9375 -14.894531 16.632812 -14.226562 16.03125 -13.65625 C 15.4375 -13.082031 14.628906 -12.796875 13.609375 -12.796875 C 12.804688 -12.796875 12.109375 -12.90625 11.515625 -13.125 C 10.929688 -13.351562 10.398438 -13.613281 9.921875 -13.90625 C 9.453125 -14.207031 9.003906 -14.472656 8.578125 -14.703125 C 8.160156 -14.941406 7.71875 -15.070312 7.25 -15.09375 C 6.863281 -15.101562 6.515625 -15.019531 6.203125 -14.84375 C 5.890625 -14.675781 5.628906 -14.453125 5.421875 -14.171875 L 5.421875 -0.265625 L 8.75 -0.265625 C 9.164062 -0.265625 9.707031 -0.273438 10.375 -0.296875 C 11.050781 -0.328125 11.78125 -0.382812 12.5625 -0.46875 C 13.34375 -0.550781 14.117188 -0.679688 14.890625 -0.859375 C 15.660156 -1.046875 16.375 -1.285156 17.03125 -1.578125 C 17.6875 -1.878906 18.207031 -2.25 18.59375 -2.6875 C 18.988281 -3.132812 19.1875 -3.671875 19.1875 -4.296875 L 19.4375 -4.296875 L 19.4375 0 L 0.78125 0 L 0.78125 -0.265625 C 1.53125 -0.265625 2.070312 -0.488281 2.40625 -0.9375 C 2.75 -1.382812 2.960938 -2.117188 3.046875 -3.140625 C 3.128906 -4.171875 3.171875 -5.539062 3.171875 -7.25 L 3.171875 -18.8125 C 3.171875 -20.53125 3.128906 -21.898438 3.046875 -22.921875 C 2.960938 -23.941406 2.75 -24.675781 2.40625 -25.125 C 2.070312 -25.570312 1.53125 -25.796875 0.78125 -25.796875 Z M 0.78125 -25.796875 "/></g></g></g></g></g></g></svg>